<svg width="96" height="104" viewBox="0 0 96 104" fill="none" xmlns="http://www.w3.org/2000/svg">
<path d="M51.3335 103.929C42.3516 103.929 33.5275 101.557 25.7458 97.0503C17.964 92.5438 11.498 86.0612 6.996 78.2525C2.49395 70.4438 0.114025 61.5832 0.0947842 52.559C0.0755512 43.5349 2.41768 34.6641 6.88639 26.8361C11.3551 19.0081 17.7934 12.4978 25.5558 7.9578C33.3183 3.41783 42.1322 1.00772 51.114 0.969066C60.0958 0.930409 68.9299 3.26458 76.7308 7.73756C84.5317 12.2105 91.0253 18.6652 95.5606 26.4545L81.8677 34.5024C78.7365 29.1247 74.2534 24.6684 68.8677 21.5803C63.482 18.4922 57.383 16.8807 51.182 16.9074C44.981 16.9341 38.8959 18.598 33.5367 21.7324C28.1775 24.8667 23.7326 29.3614 20.6474 34.7659C17.5622 40.1703 15.9452 46.2946 15.9585 52.5249C15.9718 58.7552 17.6148 64.8724 20.723 70.2636C23.8312 75.6547 28.2953 80.1302 33.6678 83.2415C39.0403 86.3528 45.1324 87.9905 51.3335 87.9905L51.3335 103.929Z" fill="#FF4F4F"/>
</svg>
