<svg width="67" height="80" viewBox="0 0 67 80" fill="none" xmlns="http://www.w3.org/2000/svg">
<path fill-rule="evenodd" clip-rule="evenodd" d="M66.789 79.8665L60.8482 79.8665C51.7994 79.8665 42.8672 77.8152 34.7169 73.8656C26.5666 69.9159 19.4083 64.1696 13.7751 57.0547C8.14197 49.9397 4.17915 41.6395 2.18186 32.7723C0.18456 23.9051 0.204252 14.6994 2.23947 5.84085L3.57564 0.0250643L42.3078 9.0077L40.9716 14.8235C40.2814 17.8278 40.2747 20.9498 40.9521 23.957C41.6295 26.9643 42.9734 29.7792 44.8838 32.1922C46.7943 34.6051 49.2219 36.5539 51.986 37.8934C54.7501 39.2329 57.7794 39.9286 60.8482 39.9286L66.789 39.9286L66.789 79.8665ZM35.1801 13.4941C34.2919 17.3693 34.2842 21.3958 35.1579 25.2745C36.0325 29.1575 37.7679 32.7922 40.2346 35.9079C42.7014 39.0235 45.8361 41.5399 49.4052 43.2695C52.9742 44.999 56.8857 45.8973 60.8482 45.8973L60.8482 73.8977C58.8588 73.8977 56.8757 73.7877 54.9075 73.5697C48.8075 72.894 42.8512 71.1808 37.2978 68.4895C29.9524 64.93 23.5011 59.7512 18.4243 53.339C13.3475 46.9267 9.7761 39.4463 7.97607 31.4549C6.61514 25.4129 6.2933 19.1965 7.00997 13.0729C7.2402 11.1056 7.57762 9.14784 8.0222 7.20853C8.02413 7.20012 8.02605 7.19171 8.02799 7.18331L35.1831 13.481C35.1821 13.4854 35.1811 13.4898 35.1801 13.4941Z" fill="#2F363D"/>
</svg>
