<svg width="64" height="111" viewBox="0 0 64 111" fill="none" xmlns="http://www.w3.org/2000/svg">
<path fill-rule="evenodd" clip-rule="evenodd" d="M63.2756 110.898L57.3349 110.898C44.8002 110.898 32.6128 106.759 22.6479 99.1197C12.683 91.4799 5.49291 80.762 2.18381 68.615C-1.12527 56.468 -0.36994 43.5651 4.33359 31.8916C9.03712 20.2182 17.4282 10.421 28.2157 4.0075L33.3284 0.967885L47.4579 24.9583L42.3452 27.9979C36.7921 31.2993 32.4726 36.3426 30.0514 42.3518C27.6301 48.361 27.2413 55.003 28.9447 61.2559C30.6481 67.5088 34.3494 73.0261 39.479 76.9588C44.6087 80.8916 50.8824 83.0218 57.3349 83.0218L63.2756 83.0218L63.2756 110.898ZM39.3198 22.8611C32.6459 26.8289 27.4546 32.8901 24.5447 40.1121C21.6348 47.3341 21.1675 55.3167 23.2147 62.8316C25.262 70.3466 29.7103 76.9774 35.8752 81.7039C42.0401 86.4303 49.5801 88.9905 57.3349 88.9905L57.3349 104.929C55.3417 104.929 53.3583 104.812 51.3941 104.582C42.2893 103.514 33.5968 100.006 26.2517 94.3747C17.3222 87.5286 10.8791 77.9242 7.9138 67.0393C4.94851 56.1543 5.62537 44.592 9.84022 34.1314C13.3071 25.5269 19.0098 18.0601 26.3044 12.4826C27.878 11.2794 29.5258 10.1641 31.2411 9.14426L39.3198 22.8611Z" fill="#2F363D"/>
</svg>
