<svg width="47" height="43" viewBox="0 0 47 43" fill="none" xmlns="http://www.w3.org/2000/svg">
<path d="M30.5313 1.6694C29.1721 2.55947 28.388 3.61138 28.1267 4.90603C28.0744 5.14878 28.0744 5.35107 28.0744 5.59382L33.72 38.6075V38.6884C33.6678 38.8098 33.5632 38.9716 33.3541 39.093C32.9359 39.3762 32.5177 39.538 32.0995 39.5785C31.8904 39.6189 31.7859 39.6594 31.6291 39.6594H22.3242L4.81213 39.5785L5.80535 35.0472H16.5739L17.3058 31.851H6.5372L12.8624 3.53047H23.997L24.7288 0.33429H9.56913L0.05513 42.7342L21.5923 42.8151H30.8972C31.3154 42.8151 31.7859 42.7747 32.3086 42.6937C33.5632 42.451 34.7133 42.006 35.6542 41.3182C36.8043 40.5495 37.5361 39.6594 37.7452 38.6884C37.7975 38.4052 37.7975 38.1624 37.7452 37.8792L32.2041 4.82512C32.2041 4.78466 32.2041 4.7442 32.2041 4.70374C32.2041 4.66329 32.2041 4.66329 32.2041 4.58237C32.3086 4.29917 32.5177 4.05642 32.8314 3.85413C33.2496 3.57092 33.72 3.44955 34.2428 3.44955H45.5341L46.2137 0.33429H34.9746C33.3018 0.374747 31.8382 0.819784 30.5313 1.6694Z" fill="#13B497"/>
</svg>
