<svg width="10" height="10" viewBox="0 0 10 10" fill="none" xmlns="http://www.w3.org/2000/svg">
<path d="M5.00018 0.625C4.13489 0.625 3.28903 0.881589 2.56956 1.36232C1.8501 1.84305 1.28934 2.52633 0.958211 3.32576C0.627079 4.12518 0.540439 5.00485 0.709249 5.85351C0.878059 6.70218 1.29474 7.48172 1.90659 8.09358C2.51844 8.70543 3.29799 9.12211 4.14666 9.29092C4.99532 9.45973 5.87499 9.37309 6.67441 9.04196C7.47384 8.71082 8.15712 8.15007 8.63785 7.43061C9.11858 6.71114 9.37517 5.86528 9.37517 4.99999C9.3738 3.84009 8.91243 2.72809 8.09225 1.90791C7.27208 1.08774 6.16008 0.626366 5.00018 0.625ZM5.00018 7.62499C4.481 7.62499 3.97349 7.47103 3.54181 7.1826C3.11013 6.89416 2.77368 6.48419 2.575 6.00453C2.37632 5.52488 2.32433 4.99708 2.42562 4.48788C2.52691 3.97868 2.77691 3.51095 3.14402 3.14384C3.51114 2.77673 3.97887 2.52672 4.48807 2.42544C4.99726 2.32415 5.52506 2.37613 6.00472 2.57481C6.48437 2.77349 6.89434 3.10994 7.18278 3.54162C7.47122 3.9733 7.62517 4.48082 7.62517 4.99999C7.62441 5.69595 7.3476 6.36318 6.85548 6.8553C6.36337 7.34742 5.69613 7.62422 5.00018 7.62499Z" fill="white"/>
</svg>
